<svg width="1096" height="218" viewBox="0 0 1096 218" fill="none" xmlns="http://www.w3.org/2000/svg">
<path d="M240.731 192H219.341V147.825H199.625V126.9H260.447V147.825H240.731V192ZM318.023 192H263.711V126.9H318.023V144.57H285.101V151.08H315.791V167.82H285.101V174.33H318.023V192ZM388.2 192H360.951L344.955 173.958H344.025V192H322.635V126.9H360.207C365.167 126.9 369.6 127.892 373.506 129.876C377.474 131.86 380.543 134.681 382.713 138.339C384.945 141.935 386.061 146.151 386.061 150.987C386.061 154.831 385.224 158.303 383.55 161.403C381.938 164.441 379.799 166.921 377.133 168.843C374.467 170.765 371.584 172.036 368.484 172.656L388.2 192ZM358.812 155.823C360.61 155.823 362.036 155.389 363.09 154.521C364.144 153.591 364.671 152.382 364.671 150.894C364.671 149.406 364.144 148.228 363.09 147.36C362.036 146.43 360.61 145.965 358.812 145.965H344.025V155.823H358.812ZM445.771 192H391.459V126.9H445.771V144.57H412.849V151.08H443.539V167.82H412.849V174.33H445.771V192ZM480.422 193.395C473.354 193.395 467.309 192.403 462.287 190.419C457.327 188.435 453.545 185.676 450.941 182.142C448.399 178.546 447.128 174.392 447.128 169.68H468.053C468.053 171.478 469.107 172.935 471.215 174.051C473.385 175.167 476.454 175.725 480.422 175.725C484.452 175.725 487.242 175.446 488.792 174.888C490.404 174.33 491.21 173.493 491.21 172.377C491.21 171.199 490.59 170.331 489.35 169.773C488.172 169.215 486.033 168.719 482.933 168.285L470.099 166.425C463.155 165.433 457.854 163.356 454.196 160.194C450.6 156.97 448.802 152.444 448.802 146.616C448.802 142.4 449.98 138.711 452.336 135.549C454.754 132.325 458.226 129.845 462.752 128.109C467.34 126.373 472.858 125.505 479.306 125.505C486.25 125.505 492.171 126.497 497.069 128.481C501.967 130.465 505.687 133.255 508.229 136.851C510.771 140.385 512.042 144.508 512.042 149.22H491.117C491.117 147.422 490.063 145.965 487.955 144.849C485.847 143.733 482.964 143.175 479.306 143.175C476.02 143.175 473.664 143.454 472.238 144.012C470.874 144.508 470.192 145.283 470.192 146.337C470.192 147.515 470.75 148.383 471.866 148.941C473.044 149.437 475.09 149.871 478.004 150.243L490.28 152.01C497.968 153.126 503.61 155.327 507.206 158.613C510.802 161.837 512.6 166.208 512.6 171.726C512.6 178.484 509.841 183.785 504.323 187.629C498.805 191.473 490.838 193.395 480.422 193.395ZM587.281 192H564.403L561.334 183.165H534.829L531.76 192H508.882L533.806 126.9H562.357L587.281 192ZM547.012 148.29L540.967 165.495H555.196L549.151 148.29H547.012ZM639.122 193.395C632.054 193.395 626.009 192.403 620.987 190.419C616.027 188.435 612.245 185.676 609.641 182.142C607.099 178.546 605.828 174.392 605.828 169.68H626.753C626.753 171.478 627.807 172.935 629.915 174.051C632.085 175.167 635.154 175.725 639.122 175.725C643.152 175.725 645.942 175.446 647.492 174.888C649.104 174.33 649.91 173.493 649.91 172.377C649.91 171.199 649.29 170.331 648.05 169.773C646.872 169.215 644.733 168.719 641.633 168.285L628.799 166.425C621.855 165.433 616.554 163.356 612.896 160.194C609.3 156.97 607.502 152.444 607.502 146.616C607.502 142.4 608.68 138.711 611.036 135.549C613.454 132.325 616.926 129.845 621.452 128.109C626.04 126.373 631.558 125.505 638.006 125.505C644.95 125.505 650.871 126.497 655.769 128.481C660.667 130.465 664.387 133.255 666.929 136.851C669.471 140.385 670.742 144.508 670.742 149.22H649.817C649.817 147.422 648.763 145.965 646.655 144.849C644.547 143.733 641.664 143.175 638.006 143.175C634.72 143.175 632.364 143.454 630.938 144.012C629.574 144.508 628.892 145.283 628.892 146.337C628.892 147.515 629.45 148.383 630.566 148.941C631.744 149.437 633.79 149.871 636.704 150.243L648.98 152.01C656.668 153.126 662.31 155.327 665.906 158.613C669.502 161.837 671.3 166.208 671.3 171.726C671.3 178.484 668.541 183.785 663.023 187.629C657.505 191.473 649.538 193.395 639.122 193.395ZM745.981 192H723.103L720.034 183.165H693.529L690.46 192H667.582L692.506 126.9H721.057L745.981 192ZM705.712 148.29L699.667 165.495H713.896L707.851 148.29H705.712ZM767.393 192H746.003V126.9H769.718L789.434 158.055H791.666V126.9H813.056V192H789.341L769.625 160.845H767.393V192ZM849.589 193.395C842.521 193.395 836.476 192.403 831.454 190.419C826.494 188.435 822.712 185.676 820.108 182.142C817.566 178.546 816.295 174.392 816.295 169.68H837.22C837.22 171.478 838.274 172.935 840.382 174.051C842.552 175.167 845.621 175.725 849.589 175.725C853.619 175.725 856.409 175.446 857.959 174.888C859.571 174.33 860.377 173.493 860.377 172.377C860.377 171.199 859.757 170.331 858.517 169.773C857.339 169.215 855.2 168.719 852.1 168.285L839.266 166.425C832.322 165.433 827.021 163.356 823.363 160.194C819.767 156.97 817.969 152.444 817.969 146.616C817.969 142.4 819.147 138.711 821.503 135.549C823.921 132.325 827.393 129.845 831.919 128.109C836.507 126.373 842.025 125.505 848.473 125.505C855.417 125.505 861.338 126.497 866.236 128.481C871.134 130.465 874.854 133.255 877.396 136.851C879.938 140.385 881.209 144.508 881.209 149.22H860.284C860.284 147.422 859.23 145.965 857.122 144.849C855.014 143.733 852.131 143.175 848.473 143.175C845.187 143.175 842.831 143.454 841.405 144.012C840.041 144.508 839.359 145.283 839.359 146.337C839.359 147.515 839.917 148.383 841.033 148.941C842.211 149.437 844.257 149.871 847.171 150.243L859.447 152.01C867.135 153.126 872.777 155.327 876.373 158.613C879.969 161.837 881.767 166.208 881.767 171.726C881.767 178.484 879.008 183.785 873.49 187.629C867.972 191.473 860.005 193.395 849.589 193.395ZM920.156 193.395C913.088 193.395 906.702 192 900.998 189.21C895.356 186.358 890.892 182.359 887.606 177.213C884.32 172.067 882.677 166.146 882.677 159.45C882.677 152.754 884.32 146.833 887.606 141.687C890.892 136.541 895.356 132.573 900.998 129.783C906.702 126.931 913.088 125.505 920.156 125.505C927.224 125.505 933.579 126.931 939.221 129.783C944.925 132.573 949.42 136.541 952.706 141.687C955.992 146.833 957.635 152.754 957.635 159.45C957.635 166.146 955.992 172.067 952.706 177.213C949.42 182.359 944.925 186.358 939.221 189.21C933.579 192 927.224 193.395 920.156 193.395ZM920.156 174.33C924.868 174.33 928.712 172.966 931.688 170.238C934.726 167.51 936.245 163.914 936.245 159.45C936.245 154.986 934.726 151.39 931.688 148.662C928.712 145.934 924.868 144.57 920.156 144.57C915.444 144.57 911.569 145.934 908.531 148.662C905.555 151.39 904.067 154.986 904.067 159.45C904.067 163.914 905.555 167.51 908.531 170.238C911.569 172.966 915.444 174.33 920.156 174.33ZM982.765 192H961.375V126.9H985.09L1004.81 158.055H1007.04V126.9H1028.43V192H1004.71L984.997 160.845H982.765V192ZM1089.23 192H1034.92V126.9H1089.23V144.57H1056.31V151.08H1087V167.82H1056.31V174.33H1089.23V192Z" fill="#FF59AC"/>
<path d="M222.345 41.7188C223.627 44.25 224.22 47.0469 224.127 50.1094C224.095 51.5781 223.83 53.0469 223.33 54.5156C221.705 58.8906 218.892 62.2812 214.892 64.6875C210.892 67.0625 206.658 68.6719 202.189 69.5156C200.47 69.8906 198.736 70.125 196.986 70.2188L196.47 70.2656L195.861 82.2188C195.861 82.4062 195.845 82.6719 195.814 83.0156C195.783 83.3594 195.767 83.625 195.767 83.8125C195.736 84.5938 195.549 85.5469 195.205 86.6719C194.767 87.9219 194.049 88.9844 193.049 89.8594C192.08 90.7344 190.955 91.3125 189.674 91.5938C188.392 91.8438 187.127 91.75 185.877 91.3125C184.658 90.875 183.627 90.1562 182.783 89.1562C182.064 88.25 181.564 87.125 181.283 85.7812C181.002 84.4062 180.877 83.25 180.908 82.3125C180.939 81.3438 181.033 80.0781 181.189 78.5156C181.752 72.6719 182.111 66.3281 182.267 59.4844C182.33 55.2656 182.345 52.125 182.314 50.0625C182.314 48.9375 182.33 48.0938 182.361 47.5312C182.424 46.2188 182.439 45.2344 182.408 44.5781C182.377 43.6094 182.236 42.6562 181.986 41.7188C181.892 41.25 181.783 40.5469 181.658 39.6094C181.502 38.0469 181.767 36.5781 182.455 35.2031C183.174 33.7969 184.205 32.7031 185.549 31.9219C186.674 31.2969 187.892 31.0156 189.205 31.0781L189.345 31.0312C190.783 30.6875 192.174 30.5156 193.517 30.5156C197.799 30.2031 202.142 30.3281 206.549 30.8906C208.705 31.2031 210.83 31.8281 212.924 32.7656C217.142 34.6719 220.283 37.6562 222.345 41.7188ZM209.08 50.2031C209.486 49.4531 209.486 48.7188 209.08 48C208.736 47.375 208.08 46.8438 207.111 46.4062C206.174 45.9688 205.392 45.6875 204.767 45.5625C204.142 45.4375 203.752 45.375 203.595 45.375C201.47 45.125 199.439 45.0469 197.502 45.1406L196.986 45.1875V45.7031C197.08 48.8594 197.111 51.8906 197.08 54.7969V55.4531L197.689 55.3594C201.314 55.0156 204.658 53.7969 207.72 51.7031C208.283 51.3281 208.736 50.8281 209.08 50.2031ZM271.058 51.9844C271.245 54.4844 271.152 56.9531 270.777 59.3906C269.777 65.3906 267.605 70.8906 264.261 75.8906C260.574 81.5469 256.308 85.5312 251.464 87.8438C250.245 88.4375 248.808 88.9375 247.152 89.3438C242.87 90.5 238.667 90.0938 234.542 88.125C231.98 86.8125 229.792 84.7969 227.98 82.0781C226.167 79.3594 224.933 76.2344 224.277 72.7031C223.839 70.3281 223.574 67.9375 223.48 65.5312C223.417 63.125 223.574 60.6406 223.949 58.0781C224.355 55.5156 224.98 53.1406 225.824 50.9531C226.699 48.7656 227.949 46.7344 229.574 44.8594C231.23 42.9531 233.167 41.4531 235.386 40.3594C240.792 37.8594 246.449 37.2188 252.355 38.4375C253.48 38.7812 254.449 38.5469 255.261 37.7344L255.402 37.5938C256.995 36.4062 258.792 35.8594 260.792 35.9531C262.792 36.0156 264.542 36.7188 266.042 38.0625C267.105 39.1875 267.949 40.4844 268.574 41.9531C270.011 45.1719 270.839 48.5156 271.058 51.9844ZM253.527 59.2969C253.87 58.2656 253.745 57.2812 253.152 56.3438C252.558 55.375 251.699 54.8438 250.574 54.75C249.105 54.5938 247.449 54.5625 245.605 54.6562C244.636 54.6562 243.761 54.8281 242.98 55.1719C242.542 55.3906 242.152 55.7031 241.808 56.1094C241.495 56.5156 241.245 56.9062 241.058 57.2812C240.902 57.6562 240.761 58.1562 240.636 58.7812C240.511 59.4062 240.433 59.875 240.402 60.1875C240.37 60.5 240.339 60.9688 240.308 61.5938V61.8281C240.214 63.2969 240.214 64.7812 240.308 66.2812C240.433 68.0625 240.745 69.8594 241.245 71.6719C241.339 72.1406 241.511 72.5156 241.761 72.7969C241.792 72.8594 241.933 72.9688 242.183 73.125C243.089 73.5938 244.433 73.0469 246.214 71.4844C249.433 68.6406 251.87 64.5781 253.527 59.2969ZM327.552 74.25C328.708 75.0625 329.567 76.125 330.13 77.4375C330.692 78.7188 330.88 80.0625 330.692 81.4688C330.474 82.8438 329.895 84.0625 328.958 85.125C328.02 86.1875 326.88 86.9375 325.536 87.375C325.099 87.5 324.599 87.5781 324.036 87.6094C323.474 87.6406 323.005 87.6562 322.63 87.6562C322.255 87.625 321.708 87.5781 320.989 87.5156C320.302 87.4531 319.817 87.4062 319.536 87.375C316.474 87.1875 313.317 86.4844 310.067 85.2656C306.849 84.0469 304.036 82.6875 301.63 81.1875C299.255 79.6875 296.942 78.0312 294.692 76.2188C292.474 74.375 290.849 72.9531 289.817 71.9531C288.817 70.9219 288.036 70.0938 287.474 69.4688L286.536 68.3906L286.63 72.7969C286.661 74.2344 286.724 77.7188 286.817 83.25C286.974 85.4062 286.38 87.2969 285.036 88.9219C283.661 90.5469 281.927 91.4375 279.833 91.5938C277.739 91.75 275.88 91.1406 274.255 89.7656C272.661 88.4531 271.786 86.7656 271.63 84.7031C271.536 79.0469 271.474 75.5 271.442 74.0625C271.411 72.9688 271.38 71.5781 271.349 69.8906C271.317 68.2031 271.286 66.75 271.255 65.5312C271.255 64.3125 271.239 63.3125 271.208 62.5312C271.02 56.7188 270.77 50.5 270.458 43.875C270.302 41.7188 270.895 39.8281 272.239 38.2031C273.552 36.7031 275.208 35.8281 277.208 35.5781H277.302L277.442 35.4844C278.724 34.7031 279.927 34.1094 281.052 33.7031C288.395 30.7031 296.083 29.0781 304.114 28.8281C306.27 28.6719 308.317 29.1562 310.255 30.2812C312.349 31.7812 313.661 33.7188 314.192 36.0938C315.536 41.3125 314.286 46.5312 310.442 51.75C309.536 52.9375 308.333 54.4062 306.833 56.1562C305.833 57.2812 305.099 58.1406 304.63 58.7344C304.161 59.3281 304.067 59.9375 304.349 60.5625C305.255 62.4062 306.458 64.0625 307.958 65.5312C309.489 66.9688 310.989 68.0938 312.458 68.9062C313.958 69.6875 315.395 70.3438 316.77 70.875C318.145 71.4062 319.255 71.75 320.099 71.9062L321.364 72.1406C323.239 72.5469 324.255 72.7656 324.411 72.7969C325.442 73.0469 326.489 73.5312 327.552 74.25ZM296.192 46.6406C296.317 46.0469 296.255 45.4844 296.005 44.9531C295.755 44.3906 295.364 43.9688 294.833 43.6875C293.833 43.3438 292.864 43.3281 291.927 43.6406C291.27 43.8281 289.567 44.3906 286.817 45.3281C286.192 45.5469 285.911 45.9688 285.974 46.5938L286.395 55.3125C286.458 55.9062 286.739 56.2969 287.239 56.4844C287.833 56.7031 288.302 56.5781 288.645 56.1094C290.52 53.8281 291.739 52.375 292.302 51.75C292.489 51.5625 292.739 51.2812 293.052 50.9062C293.395 50.5312 293.692 50.2031 293.942 49.9219C294.224 49.6094 294.474 49.3281 294.692 49.0781C295.411 48.3594 295.911 47.5469 296.192 46.6406ZM382.499 31.1719C383.186 32.8281 383.342 34.5625 382.967 36.375C382.592 38.1562 381.764 39.6719 380.483 40.9219C378.92 42.2344 377.217 43.2188 375.374 43.875C373.217 44.7812 370.702 45.7344 367.827 46.7344C367.295 46.9219 366.858 47.2344 366.514 47.6719C366.17 48.1094 365.983 48.5938 365.952 49.125L363.045 81.6562C363.014 83.8438 362.561 85.9688 361.686 88.0312C360.874 89.625 359.67 90.8281 358.077 91.6406C356.483 92.4844 354.795 92.7969 353.014 92.5781C351.264 92.4219 349.717 91.7812 348.374 90.6562C347.03 89.5625 346.139 88.1719 345.702 86.4844C345.233 83.9844 345.186 81.4688 345.561 78.9375L347.811 55.5469C347.905 54.5469 347.592 53.75 346.874 53.1562C346.124 52.5 345.28 52.2969 344.342 52.5469C340.499 53.4844 337.436 53.4531 335.155 52.4531C333.686 51.7969 332.483 50.7969 331.545 49.4531C330.608 48.1094 330.092 46.625 329.999 45C329.905 43.375 330.249 41.8594 331.03 40.4531C331.811 39.0156 332.905 37.8906 334.311 37.0781C336.092 36.1719 338.061 35.5938 340.217 35.3438C351.936 33.25 360.983 30.8438 367.358 28.125L368.108 27.7969C369.827 26.9219 371.795 26.3281 374.014 26.0156C375.733 25.9531 377.342 26.3438 378.842 27.1875C380.342 28.0312 381.483 29.2187 382.264 30.75C382.389 30.9375 382.467 31.0781 382.499 31.1719ZM431.633 56.0625C432.07 58.1875 431.727 60.125 430.602 61.875C429.539 63.5938 427.992 64.6719 425.961 65.1094C420.055 65.8906 417.055 66.2812 416.961 66.2812C412.774 66.7812 408.992 67.2656 405.617 67.7344L405.195 67.7812V68.25C405.195 73.8125 405.305 78.875 405.524 83.4375C405.43 85.5312 404.602 87.2656 403.039 88.6406C402.07 89.5469 400.914 90.1406 399.57 90.4219C398.258 90.7344 396.961 90.6875 395.68 90.2812C394.399 89.875 393.305 89.1875 392.399 88.2188C391.492 87.2188 390.883 86.0625 390.57 84.75L390.383 82.6406C390.227 79.2656 390.117 75.3281 390.055 70.8281V70.3125H389.586C388.211 70.25 386.945 69.8594 385.789 69.1406C384.633 68.4219 383.742 67.4531 383.117 66.2344C382.492 65.0156 382.211 63.7188 382.274 62.3438C382.367 60.9688 382.789 59.7188 383.539 58.5938C384.602 56.875 386.149 55.7969 388.18 55.3594C388.336 55.3281 388.602 55.2812 388.977 55.2188C389.352 55.125 389.649 55.0625 389.867 55.0312L390.289 54.9844V54.5625C390.477 49.6562 390.633 46.1094 390.758 43.9219L390.805 43.6875L390.664 43.5469C390.352 43.1719 390.133 42.8906 390.008 42.7031C389.164 41.3281 388.805 39.8438 388.93 38.25C389.055 36.6562 389.617 35.2344 390.617 33.9844C391.93 32.6094 393.399 31.5313 395.024 30.75C400.305 27.7813 406.68 24.5 414.149 20.9062C418.899 18.6562 422.195 17.5312 424.039 17.5312H424.367C426.461 17.5312 428.195 18.3125 429.57 19.875C430.695 21.4063 431.242 23.0781 431.211 24.8906C430.961 26.4844 430.461 27.6562 429.711 28.4062C428.992 29.125 427.461 30.1875 425.117 31.5938L423.899 32.3438C421.211 33.9375 417.914 35.7188 414.008 37.6875C409.695 39.9375 407.133 41.2812 406.32 41.7188L406.039 41.8594V42.375C405.914 44.3438 405.758 47.5156 405.57 51.8906L405.524 52.5L406.133 52.4062C407.039 52.2812 408.352 52.1094 410.07 51.8906C411.789 51.6719 412.93 51.5312 413.492 51.4688C416.149 51.1562 419.164 50.7812 422.539 50.3438C423.102 50.25 423.68 50.2031 424.274 50.2031C425.711 50.1719 427.07 50.5625 428.352 51.375C430.102 52.5312 431.195 54.0938 431.633 56.0625ZM478.752 51.9844C478.939 54.4844 478.845 56.9531 478.47 59.3906C477.47 65.3906 475.299 70.8906 471.955 75.8906C468.267 81.5469 464.002 85.5312 459.158 87.8438C457.939 88.4375 456.502 88.9375 454.845 89.3438C450.564 90.5 446.361 90.0938 442.236 88.125C439.674 86.8125 437.486 84.7969 435.674 82.0781C433.861 79.3594 432.627 76.2344 431.97 72.7031C431.533 70.3281 431.267 67.9375 431.174 65.5312C431.111 63.125 431.267 60.6406 431.642 58.0781C432.049 55.5156 432.674 53.1406 433.517 50.9531C434.392 48.7656 435.642 46.7344 437.267 44.8594C438.924 42.9531 440.861 41.4531 443.08 40.3594C448.486 37.8594 454.142 37.2188 460.049 38.4375C461.174 38.7812 462.142 38.5469 462.955 37.7344L463.095 37.5938C464.689 36.4062 466.486 35.8594 468.486 35.9531C470.486 36.0156 472.236 36.7188 473.736 38.0625C474.799 39.1875 475.642 40.4844 476.267 41.9531C477.705 45.1719 478.533 48.5156 478.752 51.9844ZM461.22 59.2969C461.564 58.2656 461.439 57.2812 460.845 56.3438C460.252 55.375 459.392 54.8438 458.267 54.75C456.799 54.5938 455.142 54.5625 453.299 54.6562C452.33 54.6562 451.455 54.8281 450.674 55.1719C450.236 55.3906 449.845 55.7031 449.502 56.1094C449.189 56.5156 448.939 56.9062 448.752 57.2812C448.595 57.6562 448.455 58.1562 448.33 58.7812C448.205 59.4062 448.127 59.875 448.095 60.1875C448.064 60.5 448.033 60.9688 448.002 61.5938V61.8281C447.908 63.2969 447.908 64.7812 448.002 66.2812C448.127 68.0625 448.439 69.8594 448.939 71.6719C449.033 72.1406 449.205 72.5156 449.455 72.7969C449.486 72.8594 449.627 72.9688 449.877 73.125C450.783 73.5938 452.127 73.0469 453.908 71.4844C457.127 68.6406 459.564 64.5781 461.22 59.2969ZM525.542 78.3281C525.886 80.5156 525.402 82.4844 524.089 84.2344C522.745 85.9531 521.042 86.9844 518.98 87.3281L517.339 87.6562C515.183 88.0938 512.511 88.7188 509.324 89.5312C505.886 90.375 503.808 90.875 503.089 91.0312L501.261 91.4531C499.23 91.9219 497.62 92.2656 496.433 92.4844C494.152 92.8594 491.933 93.0312 489.777 93C487.183 93 484.839 92.2344 482.745 90.7031C482.277 90.2969 481.605 89.6562 480.73 88.7812C480.417 88.2812 479.98 87.5625 479.417 86.625L479.183 86.0625C478.995 85.5312 478.777 84.7031 478.527 83.5781C478.183 81.4844 478.058 79.4375 478.152 77.4375V76.5C478.152 76.2188 478.152 75.8125 478.152 75.2812C478.183 74.7188 478.199 74.2969 478.199 74.0156C478.23 72.4531 478.308 70.1875 478.433 67.2188C478.558 63.125 478.636 60.0938 478.667 58.125C478.667 57.4688 478.761 51.0156 478.949 38.7656C479.199 36.6094 480.167 34.875 481.855 33.5625C483.511 32.25 485.324 31.6719 487.292 31.8281C487.355 31.8281 487.417 31.8437 487.48 31.875C487.542 31.875 487.605 31.875 487.667 31.875C489.23 32.0625 490.605 32.6562 491.792 33.6562C493.011 34.625 493.855 35.8594 494.324 37.3594L494.605 39.9375L494.558 44.8594C494.495 50.3594 494.402 55.7969 494.277 61.1719C494.183 64.6406 494.136 68.9062 494.136 73.9688C494.136 74.6875 494.433 75.2969 495.027 75.7969C495.589 76.2656 496.261 76.4219 497.042 76.2656C497.324 76.2031 497.745 76.1094 498.308 75.9844C498.902 75.8594 499.339 75.7656 499.62 75.7031L500.699 75.4688C501.355 75.3125 502.324 75.0938 503.605 74.8125C504.917 74.5312 505.886 74.3281 506.511 74.2031C508.417 73.7969 510.089 73.3906 511.527 72.9844C512.87 72.6094 514.558 72.2031 516.589 71.7656C518.62 71.3594 520.464 71.7656 522.12 72.9844C523.995 74.2344 525.136 76.0156 525.542 78.3281ZM549.739 74.8594C549.895 76.7969 549.989 78.2969 550.02 79.3594C550.052 80.4219 549.88 81.7031 549.505 83.2031C549.161 84.6719 548.552 85.8906 547.677 86.8594C546.083 88.6406 544.02 89.6094 541.489 89.7656C539.02 89.9219 536.88 89.1562 535.067 87.4688C533.286 85.7812 532.302 83.75 532.114 81.375C531.77 78.5625 531.63 75.7188 531.692 72.8438V71.625V64.875V63.6562C531.692 54.2188 531.708 47.1406 531.739 42.4219C531.583 39.9531 532.349 37.75 534.036 35.8125C535.63 34.0312 537.645 33.0625 540.083 32.9062C542.614 32.75 544.802 33.5 546.645 35.1562C548.427 36.75 549.395 38.7656 549.552 41.2031C549.52 45.9219 549.505 53 549.505 62.4375V62.9531V70.9688C549.505 71.2812 549.583 72.5781 549.739 74.8594ZM600.702 51.9844C600.889 54.4844 600.795 56.9531 600.42 59.3906C599.42 65.3906 597.249 70.8906 593.905 75.8906C590.217 81.5469 585.952 85.5312 581.108 87.8438C579.889 88.4375 578.452 88.9375 576.795 89.3438C572.514 90.5 568.311 90.0938 564.186 88.125C561.624 86.8125 559.436 84.7969 557.624 82.0781C555.811 79.3594 554.577 76.2344 553.92 72.7031C553.483 70.3281 553.217 67.9375 553.124 65.5312C553.061 63.125 553.217 60.6406 553.592 58.0781C553.999 55.5156 554.624 53.1406 555.467 50.9531C556.342 48.7656 557.592 46.7344 559.217 44.8594C560.874 42.9531 562.811 41.4531 565.03 40.3594C570.436 37.8594 576.092 37.2188 581.999 38.4375C583.124 38.7812 584.092 38.5469 584.905 37.7344L585.045 37.5938C586.639 36.4062 588.436 35.8594 590.436 35.9531C592.436 36.0156 594.186 36.7188 595.686 38.0625C596.749 39.1875 597.592 40.4844 598.217 41.9531C599.655 45.1719 600.483 48.5156 600.702 51.9844ZM583.17 59.2969C583.514 58.2656 583.389 57.2812 582.795 56.3438C582.202 55.375 581.342 54.8438 580.217 54.75C578.749 54.5938 577.092 54.5625 575.249 54.6562C574.28 54.6562 573.405 54.8281 572.624 55.1719C572.186 55.3906 571.795 55.7031 571.452 56.1094C571.139 56.5156 570.889 56.9062 570.702 57.2812C570.545 57.6562 570.405 58.1562 570.28 58.7812C570.155 59.4062 570.077 59.875 570.045 60.1875C570.014 60.5 569.983 60.9688 569.952 61.5938V61.8281C569.858 63.2969 569.858 64.7812 569.952 66.2812C570.077 68.0625 570.389 69.8594 570.889 71.6719C570.983 72.1406 571.155 72.5156 571.405 72.7969C571.436 72.8594 571.577 72.9688 571.827 73.125C572.733 73.5938 574.077 73.0469 575.858 71.4844C579.077 68.6406 581.514 64.5781 583.17 59.2969Z" fill="black"/>
<path d="M147.667 154.984C147.855 157.484 147.761 159.953 147.386 162.391C146.386 168.391 144.214 173.891 140.87 178.891C137.183 184.547 132.917 188.531 128.074 190.844C126.855 191.438 125.417 191.938 123.761 192.344C119.48 193.5 115.277 193.094 111.152 191.125C108.589 189.812 106.402 187.797 104.589 185.078C102.777 182.359 101.542 179.234 100.886 175.703C100.449 173.328 100.183 170.938 100.089 168.531C100.027 166.125 100.183 163.641 100.558 161.078C100.964 158.516 101.589 156.141 102.433 153.953C103.308 151.766 104.558 149.734 106.183 147.859C107.839 145.953 109.777 144.453 111.995 143.359C117.402 140.859 123.058 140.219 128.964 141.438C130.089 141.781 131.058 141.547 131.87 140.734L132.011 140.594C133.605 139.406 135.402 138.859 137.402 138.953C139.402 139.016 141.152 139.719 142.652 141.062C143.714 142.188 144.558 143.484 145.183 144.953C146.62 148.172 147.449 151.516 147.667 154.984ZM130.136 162.297C130.48 161.266 130.355 160.281 129.761 159.344C129.167 158.375 128.308 157.844 127.183 157.75C125.714 157.594 124.058 157.562 122.214 157.656C121.245 157.656 120.37 157.828 119.589 158.172C119.152 158.391 118.761 158.703 118.417 159.109C118.105 159.516 117.855 159.906 117.667 160.281C117.511 160.656 117.37 161.156 117.245 161.781C117.12 162.406 117.042 162.875 117.011 163.188C116.98 163.5 116.949 163.969 116.917 164.594V164.828C116.824 166.297 116.824 167.781 116.917 169.281C117.042 171.062 117.355 172.859 117.855 174.672C117.949 175.141 118.12 175.516 118.37 175.797C118.402 175.859 118.542 175.969 118.792 176.125C119.699 176.594 121.042 176.047 122.824 174.484C126.042 171.641 128.48 167.578 130.136 162.297ZM196.38 159.062C196.817 161.188 196.474 163.125 195.349 164.875C194.286 166.594 192.739 167.672 190.708 168.109C184.802 168.891 181.802 169.281 181.708 169.281C177.52 169.781 173.739 170.266 170.364 170.734L169.942 170.781V171.25C169.942 176.812 170.052 181.875 170.27 186.438C170.177 188.531 169.349 190.266 167.786 191.641C166.817 192.547 165.661 193.141 164.317 193.422C163.005 193.734 161.708 193.688 160.427 193.281C159.145 192.875 158.052 192.188 157.145 191.219C156.239 190.219 155.63 189.062 155.317 187.75L155.13 185.641C154.974 182.266 154.864 178.328 154.802 173.828V173.312H154.333C152.958 173.25 151.692 172.859 150.536 172.141C149.38 171.422 148.489 170.453 147.864 169.234C147.239 168.016 146.958 166.719 147.02 165.344C147.114 163.969 147.536 162.719 148.286 161.594C149.349 159.875 150.895 158.797 152.927 158.359C153.083 158.328 153.349 158.281 153.724 158.219C154.099 158.125 154.395 158.062 154.614 158.031L155.036 157.984V157.562C155.224 152.656 155.38 149.109 155.505 146.922L155.552 146.688L155.411 146.547C155.099 146.172 154.88 145.891 154.755 145.703C153.911 144.328 153.552 142.844 153.677 141.25C153.802 139.656 154.364 138.234 155.364 136.984C156.677 135.609 158.145 134.531 159.77 133.75C165.052 130.781 171.427 127.5 178.895 123.906C183.645 121.656 186.942 120.531 188.786 120.531H189.114C191.208 120.531 192.942 121.312 194.317 122.875C195.442 124.406 195.989 126.078 195.958 127.891C195.708 129.484 195.208 130.656 194.458 131.406C193.739 132.125 192.208 133.188 189.864 134.594L188.645 135.344C185.958 136.938 182.661 138.719 178.755 140.688C174.442 142.938 171.88 144.281 171.067 144.719L170.786 144.859V145.375C170.661 147.344 170.505 150.516 170.317 154.891L170.27 155.5L170.88 155.406C171.786 155.281 173.099 155.109 174.817 154.891C176.536 154.672 177.677 154.531 178.239 154.469C180.895 154.156 183.911 153.781 187.286 153.344C187.849 153.25 188.427 153.203 189.02 153.203C190.458 153.172 191.817 153.562 193.099 154.375C194.849 155.531 195.942 157.094 196.38 159.062Z" fill="black"/>
<path d="M56.9062 31.1719C57.5938 32.8281 57.75 34.5625 57.375 36.375C57 38.1562 56.1719 39.6719 54.8906 40.9219C53.3281 42.2344 51.625 43.2188 49.7812 43.875C47.625 44.7812 45.1094 45.7344 42.2344 46.7344C41.7031 46.9219 41.2656 47.2344 40.9219 47.6719C40.5781 48.1094 40.3906 48.5938 40.3594 49.125L37.4531 81.6562C37.4219 83.8438 36.9688 85.9688 36.0938 88.0312C35.2812 89.625 34.0781 90.8281 32.4844 91.6406C30.8906 92.4844 29.2031 92.7969 27.4219 92.5781C25.6719 92.4219 24.125 91.7812 22.7812 90.6562C21.4375 89.5625 20.5469 88.1719 20.1094 86.4844C19.6406 83.9844 19.5938 81.4688 19.9688 78.9375L22.2188 55.5469C22.3125 54.5469 22 53.75 21.2812 53.1562C20.5312 52.5 19.6875 52.2969 18.75 52.5469C14.9062 53.4844 11.8438 53.4531 9.5625 52.4531C8.09375 51.7969 6.89062 50.7969 5.95312 49.4531C5.01562 48.1094 4.5 46.625 4.40625 45C4.3125 43.375 4.65625 41.8594 5.4375 40.4531C6.21875 39.0156 7.3125 37.8906 8.71875 37.0781C10.5 36.1719 12.4688 35.5938 14.625 35.3438C26.3438 33.25 35.3906 30.8438 41.7656 28.125L42.5156 27.7969C44.2344 26.9219 46.2031 26.3281 48.4219 26.0156C50.1406 25.9531 51.75 26.3438 53.25 27.1875C54.75 28.0312 55.8906 29.2187 56.6719 30.75C56.7969 30.9375 56.875 31.0781 56.9062 31.1719ZM113.728 19.5C115.353 21.25 116.088 23.3125 115.931 25.6875C115.681 29.125 115.369 35.2656 114.994 44.1094C114.619 52.9531 114.4 58.0938 114.338 59.5312L114.15 63.0469C113.619 70.2344 113.447 77.2969 113.634 84.2344C113.541 86.7031 112.588 88.7656 110.775 90.4219C108.963 92.0781 106.822 92.8594 104.353 92.7656C101.853 92.6719 99.7906 91.7344 98.1656 89.9531C96.5094 88.1094 95.7125 85.9531 95.775 83.4844C95.65 80.2031 95.6813 76.1406 95.8688 71.2969C95.9 70.6406 95.6656 70.0312 95.1656 69.4688C94.6969 68.9375 94.0875 68.6719 93.3375 68.6719H92.9625C87.1813 69.4844 84.0094 69.9219 83.4469 69.9844C82.9156 70.0469 82.4781 70.2969 82.1344 70.7344C81.7906 71.1406 81.6188 71.6094 81.6188 72.1406C81.6188 72.3906 81.6188 72.8281 81.6188 73.4531C81.65 74.0469 81.6656 74.5156 81.6656 74.8594C81.8219 80.2031 81.7906 83.2344 81.5719 83.9531L80.5406 86.1094C79.2281 88.2031 77.3688 89.5156 74.9625 90.0469C72.6188 90.5781 70.3844 90.1719 68.2594 88.8281C67.3219 88.2344 66.4625 87.4531 65.6813 86.4844C64.9 85.4844 64.4625 84.4688 64.3688 83.4375C64.0875 81.0938 63.9 77.4844 63.8063 72.6094V72.1875L63.4313 72.0938C62.4 71.8438 61.525 71.4844 60.8063 71.0156C58.7125 69.7031 57.4 67.8438 56.8688 65.4375C56.3688 63.0312 56.775 60.7812 58.0875 58.6875C59.3688 56.625 61.1813 55.3281 63.525 54.7969L64.2281 54.7031L64.275 54.2812C64.3688 52.4688 64.4938 49.75 64.65 46.125C64.8375 42.4688 64.9781 39.7344 65.0719 37.9219C65.1344 36.1094 65.6813 34.4688 66.7125 33C67.775 31.5313 69.1656 30.4844 70.8844 29.8594C72.6031 29.2344 74.3375 29.1406 76.0875 29.5781C77.8375 30.0156 79.3219 30.9062 80.5406 32.25C82.1969 34 82.9781 36.1094 82.8844 38.5781L82.3688 48.7031C82.3063 49.6094 82.6344 50.3594 83.3531 50.9531C84.0719 51.5781 84.8688 51.8125 85.7438 51.6562L94.8844 50.0156C95.5406 49.8906 96.0719 49.5938 96.4781 49.125C96.9156 48.625 97.1656 48.0469 97.2281 47.3906C97.3219 46.0156 97.4625 42.3438 97.65 36.375C97.8375 30.4063 97.9938 26.625 98.1188 25.0312C98.2125 22.6562 99.1188 20.6406 100.838 18.9844C102.556 17.3281 104.619 16.4844 107.025 16.4531H107.353C109.916 16.6094 112.041 17.625 113.728 19.5ZM163.659 30.5625C164.284 32.9688 163.972 35.2188 162.722 37.3125C161.659 39.2188 160.019 40.4531 157.8 41.0156C151.863 42.2969 146.05 43.9844 140.363 46.0781C138.519 46.9219 136.675 47.7969 134.831 48.7031L134.597 48.8438L134.316 51.7031L135.066 51.5156C137.659 50.7656 141.425 49.6406 146.363 48.1406C147.019 47.9219 147.769 47.8125 148.613 47.8125C150.738 47.8125 152.597 48.5156 154.191 49.9219C155.816 51.3281 156.769 53.0781 157.05 55.1719C157.331 57.2656 156.878 59.2031 155.691 60.9844C154.534 62.7656 152.941 63.9375 150.909 64.5C143.316 66.8125 137.3 68.5469 132.863 69.7031L132.206 69.8438L132.159 70.2188C131.878 71.5625 131.909 72.9062 132.253 74.25C132.659 75.375 133.003 76.0469 133.284 76.2656C133.597 76.4844 134.269 76.5625 135.3 76.5C135.394 76.5 135.566 76.5 135.816 76.5C136.097 76.4688 136.316 76.4531 136.472 76.4531C136.534 76.4531 137.722 76.3594 140.034 76.1719C141.628 75.9219 143.331 75.8281 145.144 75.8906C146.956 75.9219 148.566 76.2344 149.972 76.8281C152.003 78.0156 153.316 79.7344 153.909 81.9844C154.503 84.2344 154.222 86.375 153.066 88.4062C151.941 90.4062 150.269 91.7031 148.05 92.2969C145.3 92.8281 142.644 93.1875 140.081 93.375L139.05 93.4688C138.331 93.5312 137.253 93.5938 135.816 93.6562C132.659 93.9062 129.581 93.5781 126.581 92.6719C124.331 91.9219 122.347 90.8125 120.628 89.3438C119.691 88.5 118.909 87.5938 118.284 86.625C118.034 86.3125 117.8 85.9531 117.581 85.5469C116.706 83.9219 116.097 82.3125 115.753 80.7188C115.441 79.0625 115.269 77.5312 115.238 76.125C115.238 73.125 115.409 70.375 115.753 67.875L115.941 66.4219C117.128 55.2031 117.878 46.9844 118.191 41.7656C118.191 39.3906 119.019 37.3438 120.675 35.625C122.331 33.9688 124.316 33.1406 126.628 33.1406C126.909 33.1406 127.3 33.1719 127.8 33.2344H127.988L128.128 33.1875C131.409 31.5625 134.988 30.0469 138.863 28.6406C140.206 28.2031 142.253 27.5781 145.003 26.7656C147.097 26.1719 149.831 25.4844 153.206 24.7031C154.019 24.5156 154.816 24.4219 155.597 24.4219C157.159 24.4219 158.55 24.7813 159.769 25.5C161.706 26.625 163.003 28.3125 163.659 30.5625Z" fill="black"/>
</svg>
